External Loads File
version=1
nRows=39
nColumns=13
Range=5.000000e-03-10 seconds
endheader
time 	forceRightX 	forceRightY 	forceRightZ 	pointRightX 	pointRightY 	pointRightZ 	forceLeftX 	forceLeftY 	forceLeftZ 	pointLeftX 	pointLeftY 	pointLeftZ 		
0.005000 18.387788 81.775882 -0.000000 0.478770 0.420600 -0.188834 35.345084 127.043168 -0.000000 0.189535 0.235385 -0.440969
0.010000 18.496042 81.775373 -0.000000 0.478786 0.420620 -0.188850 35.503353 126.744903 -0.000000 0.189580 0.235365 -0.440971
0.015000 18.590152 81.768287 -0.000000 0.478832 0.420644 -0.188849 35.647390 126.417764 -0.000000 0.189613 0.235328 -0.440979
0.020000 18.603718 81.746138 -0.000000 0.478848 0.420649 -0.188848 35.707899 126.060955 -0.000000 0.189659 0.235138 -0.440986
0.025000 18.454805 81.716143 -0.000000 0.478625 0.421163 -0.188642 35.584639 125.682828 -0.000000 0.189670 0.235193 -0.440899
0.030000 18.340199 81.648913 -0.000000 0.478626 0.421239 -0.188655 35.565725 125.199958 -0.000000 0.189685 0.235232 -0.440846
0.035000 18.169426 81.600013 -0.000000 0.478640 0.421289 -0.188648 35.462329 124.683060 -0.000000 0.189697 0.235235 -0.440844
0.040000 17.971015 81.592813 -0.000000 0.478669 0.421306 -0.188656 35.288971 124.163092 -0.000000 0.189703 0.235235 -0.440834
0.045000 17.735405 81.638224 -0.000000 0.478692 0.421328 -0.188663 35.053589 123.687135 -0.000000 0.189711 0.235235 -0.440816
0.050000 17.464154 81.724631 -0.000000 0.478702 0.421339 -0.188651 34.823624 123.299054 -0.000000 0.189699 0.235251 -0.440827
0.055000 17.154313 81.826269 -0.000000 0.478702 0.421348 -0.188641 34.658307 123.041972 -0.000000 0.189690 0.235275 -0.440813
0.060000 16.829349 81.908977 -0.000000 0.478710 0.421322 -0.188627 34.597015 122.930819 -0.000000 0.189669 0.235280 -0.440820
0.065000 16.525567 81.956084 -0.000000 0.478712 0.421310 -0.188630 34.637823 122.963284 -0.000000 0.189648 0.235299 -0.440818
0.070000 16.278594 81.973565 -0.000000 0.478713 0.421306 -0.188614 34.775049 123.123555 -0.000000 0.189621 0.235332 -0.440814
0.075000 16.067053 81.977538 -0.000000 0.478706 0.421296 -0.188617 34.951222 123.385216 -0.000000 0.189597 0.235325 -0.440813
0.080000 15.875960 81.973604 -0.000000 0.478693 0.421283 -0.188610 35.139312 123.698942 -0.000000 0.189568 0.235371 -0.440813
0.085000 15.663296 81.975190 -0.000000 0.478687 0.421284 -0.188617 35.261607 124.035014 -0.000000 0.189536 0.235387 -0.440806
0.090000 15.440489 81.992295 -0.000000 0.478675 0.421277 -0.188622 35.297429 124.350540 -0.000000 0.189528 0.235396 -0.440812
0.095000 15.230312 82.037402 -0.000000 0.478671 0.421291 -0.188619 35.235441 124.615147 -0.000000 0.189518 0.235397 -0.440812
0.100000 15.074507 82.120997 -0.000000 0.478646 0.421279 -0.188620 35.095618 124.809960 -0.000000 0.189517 0.235389 -0.440810
0.105000 15.007991 82.250298 -0.000000 0.478651 0.421291 -0.188619 34.886008 124.917670 -0.000000 0.189527 0.235382 -0.440811
0.110000 15.048859 82.423517 -0.000000 0.478645 0.421311 -0.188625 34.613515 124.926769 -0.000000 0.189541 0.235354 -0.440806
0.115000 15.197979 82.627502 -0.000000 0.478635 0.421327 -0.188633 34.307447 124.845542 -0.000000 0.189580 0.235326 -0.440806
0.120000 15.428845 82.844878 -0.000000 0.478626 0.421366 -0.188644 33.984159 124.699288 -0.000000 0.189603 0.235297 -0.440792
0.125000 15.708924 83.050541 -0.000000 0.478624 0.421371 -0.188649 33.681786 124.514092 -0.000000 0.189644 0.235280 -0.440792
0.130000 15.963560 83.219139 -0.000000 0.478613 0.421407 -0.188638 33.418908 124.331447 -0.000000 0.189677 0.235253 -0.440811
0.135000 16.142774 83.330893 -0.000000 0.478614 0.421434 -0.188658 33.246652 124.178676 -0.000000 0.189688 0.235205 -0.440783
0.140000 16.219465 83.390404 -0.000000 0.478607 0.421460 -0.188664 33.203347 124.079635 -0.000000 0.189717 0.235199 -0.440781
0.145000 16.173982 83.428396 -0.000000 0.478606 0.421479 -0.188670 33.294310 124.063845 -0.000000 0.189729 0.235171 -0.440783
0.150000 16.011464 83.476538 -0.000000 0.478601 0.421496 -0.188658 33.516976 124.133237 -0.000000 0.189745 0.235160 -0.440784
0.155000 15.730410 83.546476 -0.000000 0.478591 0.421504 -0.188668 33.831805 124.269922 -0.000000 0.189748 0.235148 -0.440790
0.160000 15.334117 83.626436 -0.000000 0.478593 0.421536 -0.188665 34.206133 124.466762 -0.000000 0.189747 0.235140 -0.440784
0.165000 14.872723 83.696191 -0.000000 0.478592 0.421531 -0.188659 34.648978 124.723207 -0.000000 0.189749 0.235133 -0.440791
0.170000 14.418486 83.741068 -0.000000 0.478582 0.421535 -0.188666 35.150515 125.041749 -0.000000 0.189725 0.235156 -0.440790
0.175000 14.037843 83.745691 -0.000000 0.478577 0.421540 -0.188654 35.688887 125.428767 -0.000000 0.189722 0.235155 -0.440790
0.180000 13.787881 83.688191 -0.000000 0.478582 0.421530 -0.188663 36.279893 125.871648 -0.000000 0.189699 0.235159 -0.440766
0.185000 13.650855 83.561583 -0.000000 0.478576 0.421541 -0.188664 36.892600 126.352875 -0.000000 0.189686 0.235173 -0.440789
0.190000 13.607099 83.383587 -0.000000 0.478578 0.421524 -0.188657 37.530024 126.842281 -0.000000 0.189677 0.235170 -0.440768
0.195000 13.635260 83.201119 -0.000000 0.478575 0.421533 -0.188668 38.169385 127.312391 -0.000000 0.189668 0.235172 -0.440768
